<?xml version="1.0" encoding="utf-8"?>
<!-- Generator: Adobe Illustrator 26.2.1, SVG Export Plug-In . SVG Version: 6.00 Build 0)  -->
<svg version="1.1" id="Layer_1" xmlns="http://www.w3.org/2000/svg" xmlns:xlink="http://www.w3.org/1999/xlink" x="0px" y="0px"
	 viewBox="0 0 1280 1280" style="enable-background:new 0 0 1280 1280;" xml:space="preserve">
<style type="text/css">
	.st0{fill:#8C9CAC;}
	.st1{fill:#2AAAAA;}
</style>
<g>
	<path class="st0" d="M615.34,542.24c0.01,0.06,0.01,0.13,0.01,0.19C615.35,542.37,615.34,542.3,615.34,542.24z"/>
	<path class="st0" d="M664.65,542.43c0.01-0.06,0.01-0.13,0.01-0.19C664.66,542.3,664.65,542.37,664.65,542.43z"/>
	<path class="st0" d="M290.09,104.28c-0.05,0.02-0.1,0.05-0.15,0.07C289.98,104.33,290.04,104.31,290.09,104.28z"/>
	<path class="st0" d="M298.81,102.14c-0.14,0.01-0.29,0.02-0.43,0.03C298.53,102.17,298.67,102.15,298.81,102.14z"/>
	<path class="st0" d="M297.38,102.27c-0.15,0.02-0.3,0.04-0.46,0.06C297.07,102.31,297.22,102.29,297.38,102.27z"/>
	<path class="st0" d="M295.91,102.49c-0.13,0.02-0.25,0.04-0.38,0.07C295.66,102.53,295.78,102.51,295.91,102.49z"/>
	<path class="st0" d="M294.25,102.84c-0.02,0.01-0.04,0.01-0.07,0.02C294.21,102.85,294.23,102.84,294.25,102.84z"/>
	<path class="st0" d="M291.42,103.73c-0.06,0.02-0.11,0.04-0.17,0.07C291.31,103.77,291.37,103.75,291.42,103.73z"/>
	<path class="st0" d="M292.85,150.47c0.01,0,0.01,0,0.02,0.01C292.86,150.48,292.85,150.48,292.85,150.47z"/>
	<path class="st0" d="M294.03,150.81c0,0,0.01,0,0.01,0C294.04,150.81,294.03,150.81,294.03,150.81z"/>
	<path class="st0" d="M295.24,151.09C295.24,151.09,295.24,151.09,295.24,151.09C295.24,151.09,295.24,151.09,295.24,151.09z"/>
	<path class="st0" d="M296.35,151.29c0.04,0.01,0.08,0.02,0.12,0.02C296.43,151.31,296.39,151.3,296.35,151.29z"/>
	<path class="st0" d="M297.44,151.44c0.09,0.01,0.18,0.03,0.27,0.03C297.62,151.46,297.53,151.45,297.44,151.44z"/>
	<path class="st0" d="M298.64,151.54c0.11,0.01,0.22,0.02,0.33,0.03C298.86,151.56,298.75,151.55,298.64,151.54z"/>
	<path class="st0" d="M1004.5,126.85c0-9.49-5.34-17.73-13.18-21.88C890.47,38.61,769.75,0,640,0S389.53,38.61,288.68,104.97
		c-7.84,4.15-13.18,12.39-13.18,21.88c0,10.24,6.22,19.03,15.08,22.79c0,0,0,0,0,0c156.65,79.97,275.99,222.56,325.02,394.77
		c0,0,0,0,0,0C617.59,556.1,627.75,565,640,565s22.41-8.9,24.39-20.58c0,0,0,0,0,0c49.03-172.22,168.38-314.81,325.02-394.77
		c0,0,0,0,0,0C998.28,145.88,1004.5,137.09,1004.5,126.85z"/>
	<path class="st0" d="M990.07,104.35c-0.05-0.02-0.1-0.05-0.15-0.07C989.96,104.31,990.02,104.33,990.07,104.35z"/>
	<path class="st0" d="M988.75,103.79c-0.06-0.02-0.11-0.04-0.17-0.07C988.63,103.75,988.69,103.77,988.75,103.79z"/>
	<path class="st0" d="M985.82,102.85c-0.02-0.01-0.04-0.01-0.07-0.02C985.77,102.84,985.79,102.85,985.82,102.85z"/>
	<path class="st0" d="M984.47,102.55c-0.13-0.02-0.25-0.05-0.38-0.07C984.22,102.51,984.34,102.53,984.47,102.55z"/>
	<path class="st0" d="M983.08,102.33c-0.15-0.02-0.3-0.04-0.46-0.06C982.78,102.29,982.93,102.31,983.08,102.33z"/>
	<path class="st0" d="M981.62,102.18c-0.14-0.01-0.29-0.02-0.43-0.03C981.33,102.15,981.47,102.17,981.62,102.18z"/>
	<path class="st0" d="M987.13,150.48c0.01,0,0.01,0,0.02-0.01C987.15,150.48,987.14,150.48,987.13,150.48z"/>
	<path class="st0" d="M981.03,151.57c0.11-0.01,0.22-0.02,0.33-0.03C981.25,151.55,981.14,151.56,981.03,151.57z"/>
	<path class="st0" d="M982.29,151.47c0.09-0.01,0.18-0.02,0.27-0.03C982.47,151.45,982.38,151.46,982.29,151.47z"/>
	<path class="st0" d="M983.53,151.31c0.04-0.01,0.08-0.02,0.12-0.02C983.61,151.3,983.57,151.31,983.53,151.31z"/>
	<path class="st0" d="M984.75,151.09c0.01,0,0.01,0,0.02,0C984.77,151.09,984.76,151.09,984.75,151.09z"/>
	<path class="st0" d="M985.96,150.81c0,0,0.01,0,0.01,0C985.97,150.81,985.96,150.81,985.96,150.81z"/>
	<path class="st1" d="M810.08,363.23c-19.54,25.7-37,53.02-52.04,81.46c-18.77,35.51-33.91,73.03-45.02,111.55
		c-2.76,12.61-8.78,24.29-17.36,33.87c11.82,13.26,19.01,30.72,19.01,49.88c0,41.42-33.58,75-75,75c-41.42,0-75-33.58-75-75
		c0-19.34,7.32-36.96,19.34-50.26c-8.4-9.51-14.3-21.05-17.02-33.49c-11.11-38.52-26.25-76.04-45.02-111.55
		c-15.09-28.55-32.62-55.96-52.25-81.75C376.7,420.12,314.67,522.81,314.67,640c0,179.49,145.51,325,325,325s325-145.51,325-325
		C964.67,523,902.83,420.46,810.08,363.23z"/>
	<path class="st0" d="M1000.85,113.91c0.58,0.94,1.1,1.92,1.55,2.94C1001.94,115.83,1001.43,114.85,1000.85,113.91
		c-2.32-3.76-5.61-6.86-9.53-8.94c-14.03-9.23-28.45-17.9-43.22-26.03c14.77,8.13,29.19,16.8,43.22,26.03
		C995.24,107.05,998.53,110.14,1000.85,113.91z"/>
	<path class="st0" d="M824.9,270.04C824.89,270.05,824.89,270.05,824.9,270.04C824.89,270.05,824.89,270.05,824.9,270.04z"/>
	<path class="st0" d="M937.33,73.15c-13.54-7.12-27.37-13.77-41.47-19.92C909.96,59.38,923.79,66.03,937.33,73.15z"/>
	<path class="st0" d="M886.88,49.38c-4.18-1.75-8.38-3.46-12.61-5.12C878.49,45.93,882.7,47.64,886.88,49.38z"/>
	<path class="st0" d="M455.11,270.05C455.11,270.05,455.11,270.05,455.11,270.05C455.11,270.05,455.11,270.05,455.11,270.05z"/>
	<path class="st0" d="M279.15,113.91c2.32-3.76,5.61-6.86,9.53-8.94c13.52-8.9,27.41-17.28,41.63-25.15
		c-14.21,7.87-28.1,16.26-41.63,25.15C284.76,107.05,281.47,110.14,279.15,113.91c-0.58,0.94-1.1,1.92-1.55,2.94
		C278.05,115.83,278.57,114.85,279.15,113.91z"/>
	<path class="st0" d="M405.73,44.27c-3.61,1.42-7.21,2.88-10.79,4.36C398.52,47.14,402.12,45.69,405.73,44.27z"/>
	<path class="st0" d="M382.34,54.01c-11.77,5.18-23.37,10.69-34.76,16.55C358.97,64.71,370.57,59.2,382.34,54.01z"/>
	<path class="st0" d="M276.13,132.43c0.28,1.2,0.64,2.36,1.08,3.48C276.77,134.79,276.41,133.63,276.13,132.43z"/>
	<path class="st0" d="M584.26,458.41c2.26,5.03,4.45,10.1,6.58,15.2C588.71,468.51,586.52,463.44,584.26,458.41z"/>
	<path class="st0" d="M615.61,544.42C615.61,544.42,615.61,544.42,615.61,544.42c-3.06-10.76-6.4-21.41-10.01-31.94
		s-7.48-20.92-11.61-31.19c4.13,10.27,8,20.67,11.61,31.19S612.54,533.65,615.61,544.42C615.61,544.42,615.61,544.42,615.61,544.42
		c0.74,4.38,2.64,8.37,5.36,11.65C618.24,552.79,616.35,548.8,615.61,544.42z"/>
	<path class="st0" d="M622.39,557.64c1.99,2.02,4.33,3.7,6.92,4.94C626.73,561.34,624.39,559.66,622.39,557.64z"/>
	<path class="st0" d="M650.69,562.58c2.59-1.24,4.93-2.92,6.92-4.94C655.61,559.66,653.27,561.34,650.69,562.58z"/>
	<path class="st0" d="M674.4,512.48c-3.61,10.52-6.94,21.17-10.01,31.94c0,0,0,0,0,0c-0.74,4.38-2.64,8.37-5.36,11.65
		c2.72-3.28,4.62-7.27,5.36-11.65c0,0,0,0,0,0C667.46,533.65,670.8,523,674.4,512.48s7.48-20.92,11.61-31.19
		C681.88,491.56,678.01,501.96,674.4,512.48z"/>
	<path class="st0" d="M689.16,473.61c2.13-5.1,4.32-10.17,6.58-15.2C693.48,463.44,691.29,468.51,689.16,473.61z"/>
	<path class="st0" d="M1002.79,135.91c0.44-1.12,0.8-2.29,1.08-3.48C1003.59,133.63,1003.23,134.79,1002.79,135.91z"/>
	<path class="st1" d="M1028.96,183.15c-5.31,4.64-11.32,8.56-17.93,11.6c-35.42,18.18-69.15,40.07-100.27,65.07
		c-24.45,19.64-47.39,41.3-68.46,64.59c103.69,66.71,172.37,183.13,172.37,315.59c0,207.11-167.89,375-375,375s-375-167.89-375-375
		c0-132.64,68.86-249.19,172.79-315.86c-21-23.18-43.86-44.75-68.21-64.32c-31.12-25-64.85-46.89-100.27-65.07
		c-6.61-3.04-12.62-6.97-17.93-11.6C121.9,293.2,40,457.03,40,640c0,331.37,268.63,600,600,600s600-268.63,600-600
		C1240,457.03,1158.09,293.2,1028.96,183.15z"/>
</g>
</svg>
